<?xml version="1.0"?>
<svg xmlns="http://www.w3.org/2000/svg" id="Capa_1" enable-background="new 0 0 443.294 443.294" height="512px" viewBox="0 0 443.294 443.294" width="512px"><g><path d="m360.176 360.176v-332.47c0-15.274-12.432-27.706-27.705-27.706h-180.089c-3.68 0-7.197 1.461-9.794 4.058l-110.824 110.824c-2.597 2.597-4.058 6.115-4.058 9.794v235.5c0 15.273 12.432 27.706 27.706 27.706h277.059c15.273 0 27.705-12.432 27.705-27.706zm-221.619-249.325-63.566-.017 63.549-63.549s.017 63.566.017 63.566zm-83.145 27.682 83.118-.003s.041.027.054.027c7.386 0 14.34-2.882 19.575-8.103 5.235-5.249 8.09-12.216 8.076-19.602l.003-83.145h166.232v332.471h-277.058c0-.002 0-221.645 0-221.645z" data-original="#000000" class="active-path" data-old_color="#000000" fill="#FF0940"/><path d="m387.882 83.118v332.471h-277.058v27.706l277.032-.027c15.273 0 27.706-12.432 27.706-27.706l.027-332.443z" data-original="#000000" class="active-path" data-old_color="#000000" fill="#FF0940"/></g> </svg>
