<?xml version="1.0" encoding="utf-8"?>
<!-- Generator: Adobe Illustrator 22.0.0, SVG Export Plug-In . SVG Version: 6.00 Build 0)  -->
<svg version="1.1" id="barcode" xmlns="http://www.w3.org/2000/svg" xmlns:xlink="http://www.w3.org/1999/xlink" x="0px" y="0px"
	 viewBox="0 0 512 512" style="enable-background:new 0 0 512 512;" xml:space="preserve">
<style type="text/css">
	.st0{fill:#494949;}
</style>
<g>
	<path class="st0" d="M204.4,37.5H57c-10.1,0-18.5,8.2-18.5,18.5v147.4c0,10.1,8.2,18.5,18.5,18.5s18.5-8.2,18.5-18.5V74.5h129
		c10.1,0,18.5-8.2,18.5-18.5S214.7,37.5,204.4,37.5z"/>
	<path class="st0" d="M456.3,37.5H303.4c-10.5,0-19.2,8.5-19.2,19.2s8.5,19.2,19.2,19.2h133.8v133.8c0,10.5,8.5,19.2,19.2,19.2
		c10.5,0,19.2-8.5,19.2-19.2v-153C475.5,46.2,466.8,37.5,456.3,37.5z"/>
	<path class="st0" d="M198.2,438.9H74.1V314.7c0-9.7-7.9-17.8-17.8-17.8s-17.8,7.9-17.8,17.8v141.9c0,9.7,7.9,17.8,17.8,17.8h141.9
		c9.7,0,17.8-7.9,17.8-17.8C216,447,208.1,438.9,198.2,438.9z"/>
	<path class="st0" d="M457.3,292.9c-10,0-18.2,8.1-18.2,18.2v127.1H312c-10,0-18.2,8.1-18.2,18.2c0,10,8.1,18.2,18.2,18.2h145.2
		c10,0,18.2-8.1,18.2-18.2V311.1C475.5,301,467.3,292.9,457.3,292.9z"/>
</g>
</svg>
