<?xml version="1.0" encoding="utf-8"?>
<!-- Generator: Adobe Illustrator 24.0.1, SVG Export Plug-In . SVG Version: 6.00 Build 0)  -->
<svg version="1.1" id="Layer_1" xmlns="http://www.w3.org/2000/svg" xmlns:xlink="http://www.w3.org/1999/xlink" x="0px" y="0px"
	 viewBox="0 0 800 800" style="enable-background:new 0 0 800 800;" xml:space="preserve">
<style type="text/css">
	.st0{fill:#FFC417;}
	.st1{fill:none;stroke:#FFFFFF;stroke-width:44.1696;stroke-linecap:round;stroke-linejoin:bevel;stroke-miterlimit:133.3333;}
	.st2{fill:none;stroke:#FFFFFF;stroke-width:44.1696;stroke-linecap:round;stroke-linejoin:round;stroke-miterlimit:133.3333;}
</style>
<path class="st0" d="M614.4,800H185.6C83.1,800,0,716.9,0,614.4V185.6C0,83.1,83.1,0,185.6,0h428.7C716.9,0,800,83.1,800,185.6
	v428.7C800,716.9,716.9,800,614.4,800z"/>
<g id="ic-actions-emultiple-edit">
	<path class="st1" d="M578.8,385v129.1c0,25-20.3,45.3-45.3,45.3H302c-25,0-45.3-20.3-45.3-45.3V219.6c0-25,20.3-45.3,45.3-45.3
		h133.6"/>
	<path class="st1" d="M506.1,559.4v27.2c0,25-20.3,45.3-45.3,45.3H229.5c-25,0-45.3-20.3-45.3-45.3V270.1c0-25,20.3-45.3,45.3-45.3
		h27.2"/>
	<path class="st2" d="M564.3,180c-8.8-8.9-23.2-8.9-32-0.1c0,0-0.1,0.1-0.1,0.1L396.2,315.9l0,0l-2.3,68c-0.1,2.6,1.9,4.9,4.5,5
		c0.2,0,0.5,0,0.7,0l68-2.3l0,0L603,250.6c8.1-8.8,8-22.4-0.2-31L564.3,180z"/>
</g>
</svg>
