<?xml version="1.0" encoding="utf-8"?>
<!-- Generator: Adobe Illustrator 22.0.0, SVG Export Plug-In . SVG Version: 6.00 Build 0)  -->
<svg version="1.1" id="Layer_1" xmlns="http://www.w3.org/2000/svg" xmlns:xlink="http://www.w3.org/1999/xlink" x="0px" y="0px"
	 viewBox="0 0 512 512" style="enable-background:new 0 0 512 512;" xml:space="preserve">
<style type="text/css">
	.st0{fill:#FFD24D;}
</style>
<g>
	<g>
		<g>
			<path class="st0" d="M256,20.3c-86.7,0-157.2,70.5-157.2,157.2c0,26.1,6.5,51.8,18.9,74.7l129.7,234.5c1.7,3.1,5,5.1,8.6,5.1
				c3.6,0,6.9-1.9,8.6-5.1L394.2,252c12.3-22.8,18.8-48.6,18.8-74.6C413.2,90.8,342.6,20.3,256,20.3z M256,256
				c-43.4,0-78.5-35.3-78.5-78.5s35.3-78.5,78.5-78.5s78.5,35.3,78.5,78.5S299.4,256,256,256z"/>
		</g>
	</g>
</g>
</svg>
