<?xml version="1.0" encoding="utf-8"?>
<!-- Generator: Adobe Illustrator 24.0.1, SVG Export Plug-In . SVG Version: 6.00 Build 0)  -->
<svg version="1.1" id="Layer_1" xmlns="http://www.w3.org/2000/svg" xmlns:xlink="http://www.w3.org/1999/xlink" x="0px" y="0px"
	 viewBox="0 0 800 800" style="enable-background:new 0 0 800 800;" xml:space="preserve">
<style type="text/css">
	.st0{fill:url(#SVGID_1_);}
	.st1{fill:url(#SVGID_2_);}
</style>
<title>project-new</title>
<g>
	<linearGradient id="SVGID_1_" gradientUnits="userSpaceOnUse" x1="427.4465" y1="149.06" x2="539.1381" y2="535.345">
		<stop  offset="0" style="stop-color:#FEDCEC"/>
		<stop  offset="1" style="stop-color:#FAD600"/>
	</linearGradient>
	<path class="st0" d="M240.2,346.8l-2.5-1.2c-8.9-4.3-18.8-5.6-28.6-4c-9.8,1.7-18.6,6.3-25.6,13.3s-11.6,15.9-13.3,25.6
		c-1.7,9.8-0.3,19.6,4,28.6l1.2,2.5l127,127c8.2,9.1,19.3,14.6,31.5,15.5l1.2,0.1l1.2-0.1c12.2-0.9,23.4-6.4,31.5-15.5l375.7-375.7
		l2-2l1.2-2.5c4.3-8.9,5.6-18.8,4-28.6c-1.7-9.8-6.3-18.6-13.3-25.6s-15.9-11.6-25.6-13.3c-9.8-1.7-19.6-0.3-28.6,4l-2.5,1.2
		L333.9,440.5L240.2,346.8z"/>
	<linearGradient id="SVGID_2_" gradientUnits="userSpaceOnUse" x1="275.6189" y1="-14.6194" x2="529.2795" y2="862.6651">
		<stop  offset="0" style="stop-color:#FEDCEC"/>
		<stop  offset="1" style="stop-color:#FAD600"/>
	</linearGradient>
	<path class="st1" d="M790.1,361.6c-0.6-6.5-2.5-12.6-5.5-18.3c-3-5.7-7.1-10.8-12.1-14.9c-5-4.1-10.7-7.2-16.9-9.1
		c-6.2-1.9-12.6-2.6-19.1-1.9c-6.5,0.6-12.7,2.5-18.4,5.5s-10.8,7.1-14.9,12.1c-4.1,5-7.2,10.7-9.1,16.9c-1.9,6.2-2.6,12.7-1.9,19.1
		v0.2c4.3,39.1,0.7,78-10.5,115.6c-11.2,37.7-29.5,72.2-54.5,102.6c-24.2,29.8-53.5,54.3-87.2,72.9c-34.9,19.3-72.7,31.2-112.4,35.2
		h-0.1c-39.1,4.3-78,0.7-115.6-10.5c-37.7-11.2-72.2-29.5-102.6-54.5c-29.8-24.2-54.3-53.5-72.9-87.2
		c-19.3-34.9-31.2-72.7-35.2-112.4v-0.1c-4.3-39.1-0.7-78,10.5-115.6c11.2-37.7,29.5-72.2,54.5-102.6c24.2-29.8,53.5-54.3,87.2-72.9
		c34.9-19.3,72.7-31.2,112.5-35.2c40-4.3,79.8-0.6,118.3,10.9c5.9,2.3,12.2,3.4,18.6,3.2c6.7-0.2,13.1-1.8,19.1-4.6
		c6-2.9,11.3-6.9,15.6-12s7.5-10.9,9.5-17.3c1.9-6.4,2.5-13,1.7-19.6c-0.8-6.6-3-12.9-6.4-18.6s-7.9-10.6-13.4-14.4
		c-5.2-3.7-11-6.2-17.2-7.6c-50.1-15.3-102-20.2-154.1-14.6c-53,5.1-103,20.8-149.1,46.7C140.8,96,86.2,151.9,50.4,220.4
		C14.7,288.9,0,365.7,8,442.6c5.1,52.6,20.8,102.7,46.7,148.8c33.8,61.4,83.5,112.7,143.8,148.4s129.2,54.6,199.3,54.7h39.7l0.8-0.1
		c53.6-5.5,104.3-21.9,150.9-48.8c67.7-37.3,122.4-93.2,158.2-161.7C783.3,515.4,798,438.5,790.1,361.6z"/>
</g>
</svg>
