<?xml version="1.0" encoding="utf-8"?>
<!-- Generator: Adobe Illustrator 22.0.0, SVG Export Plug-In . SVG Version: 6.00 Build 0)  -->
<svg version="1.1" id="Layer_1" xmlns="http://www.w3.org/2000/svg" xmlns:xlink="http://www.w3.org/1999/xlink" x="0px" y="0px"
	 viewBox="0 0 512 512" style="enable-background:new 0 0 512 512;" xml:space="preserve">
<style type="text/css">
	.st0{fill:#FFD24D;}
</style>
<g>
	<path class="st0" d="M233.7,357.5c2.8,2.8,6.7,4.4,10.7,4.4c4,0,7.9-1.6,10.7-4.4l54-54c5.9-5.9,5.9-15.5,0-21.4
		c-5.9-5.9-15.5-5.9-21.4,0l-43.3,43.3l-19.7-19.7c-5.9-5.9-15.5-5.9-21.4,0c-5.9,5.9-5.9,15.5,0,21.4L233.7,357.5z"/>
	<path class="st0" d="M256.1,439.8c66.2,0,120-53.8,120-120s-53.8-120-120-120c-66.2,0-120,53.8-120,120S189.9,439.8,256.1,439.8z
		 M256.1,230.1c49.5,0,89.8,40.3,89.8,89.8s-40.3,89.8-89.8,89.8s-89.8-40.3-89.8-89.8S206.6,230.1,256.1,230.1z"/>
	<path class="st0" d="M457.3,32.2h-27.6V15.1C429.8,6.8,423,0,414.7,0s-15.1,6.8-15.1,15.1v17.1h-29.7V15.1
		c0-8.3-6.8-15.1-15.1-15.1c-8.3,0-15.1,6.8-15.1,15.1v17.1H172.7V15.1c0-8.3-6.8-15.1-15.1-15.1c-8.3,0-15.1,6.8-15.1,15.1v17.1
		h-29.7V15.1c0-8.3-6.8-15.1-15.1-15.1c-8.3,0-15.1,6.8-15.1,15.1v17.1H54.9C27.9,32.2,6,54.1,6,81.1v382c0,27,21.9,48.9,48.9,48.9
		h402.5c27,0,48.9-21.9,48.9-48.9v-382C506.2,54.1,484.3,32.2,457.3,32.2z M476,463.1c0,10.3-8.4,18.7-18.7,18.7H54.9
		c-10.3,0-18.7-8.4-18.7-18.7V157.9H476V463.1z M36.2,81.1c0-10.3,8.4-18.7,18.7-18.7h27.6v17.1c0,8.3,6.8,15.1,15.1,15.1
		c8.3,0,15.1-6.8,15.1-15.1V62.4h29.7v17.1c0,8.3,6.8,15.1,15.1,15.1c8.3,0,15.1-6.8,15.1-15.1V62.4h166.9v17.1
		c0,8.3,6.8,15.1,15.1,15.1c8.3,0,15.1-6.8,15.1-15.1V62.4h29.7v17.1c0,8.3,6.8,15.1,15.1,15.1c8.4,0,15.1-6.8,15.1-15.1V62.4h27.6
		c10.3,0,18.7,8.4,18.7,18.7v46.6H36.2V81.1z"/>
</g>
</svg>
